<?xml version="1.0" standalone="no"?>
<!DOCTYPE svg PUBLIC "-//W3C//DTD SVG 20010904//EN"
 "http://www.w3.org/TR/2001/REC-SVG-20010904/DTD/svg10.dtd">
<svg version="1.0" xmlns="http://www.w3.org/2000/svg"
 width="380.000000pt" height="623.000000pt" viewBox="0 0 380.000000 623.000000"
 preserveAspectRatio="xMidYMid meet">

<g transform="translate(0.000000,623.000000) scale(0.100000,-0.100000)"
fill="currentColor" stroke="none">
<path d="M2208 6015 c-8 -19 -8 -28 2 -40 30 -36 83 3 60 45 -15 28 -48 25
-62 -5z"/>
<path d="M1043 5992 c-27 -21 -45 -63 -72 -167 -30 -118 -29 -194 4 -290 16
-47 30 -117 35 -171 4 -50 15 -105 24 -122 21 -40 20 -45 -3 -37 -26 8 -30
-14 -30 -162 0 -164 15 -214 96 -333 l17 -25 -24 20 c-14 11 -30 26 -36 34 -6
8 -18 11 -28 8 -21 -8 -23 -126 -2 -165 7 -15 22 -44 32 -65 11 -21 28 -43 38
-49 19 -10 19 -11 -3 -29 -12 -10 -38 -21 -57 -25 -20 -4 -34 -12 -34 -20 0
-16 43 -36 48 -23 2 5 11 2 19 -7 14 -13 13 -17 -3 -35 -9 -11 -39 -33 -66
-49 l-49 -30 -18 42 c-10 24 -22 54 -26 68 -8 26 -47 122 -70 175 -8 17 -30
77 -49 135 -19 58 -77 231 -131 385 -53 154 -105 307 -116 339 -10 33 -23 64
-28 70 -4 6 -11 25 -14 41 -3 17 -16 53 -28 80 -13 28 -23 53 -24 57 0 4 -6
13 -13 20 -11 11 -15 10 -24 -5 -5 -11 -29 -27 -52 -38 -41 -19 -116 -26 -116
-11 0 5 14 21 31 38 26 25 38 29 80 27 34 -1 49 3 46 10 -2 7 -14 12 -26 11
-11 0 -21 2 -21 6 0 15 -61 -4 -91 -29 -26 -22 -32 -34 -31 -62 1 -19 42 -151
92 -294 50 -143 113 -323 140 -400 141 -410 185 -532 201 -548 9 -10 16 -26
14 -35 -2 -16 14 -73 34 -117 5 -11 19 -48 31 -82 12 -35 27 -63 32 -63 5 0 6
-5 3 -10 -4 -6 7 -39 23 -73 16 -34 53 -123 82 -199 l53 -136 -46 -59 c-74
-95 -124 -220 -99 -245 8 -8 14 -4 23 15 7 15 16 27 20 27 13 0 -2 -32 -26
-60 -43 -48 -68 -112 -73 -187 -5 -80 4 -112 50 -180 31 -45 33 -55 19 -81
-62 -115 -76 -158 -75 -237 1 -134 56 -219 177 -278 31 -16 55 -32 52 -37 -3
-5 18 -28 46 -52 29 -24 62 -52 74 -64 34 -31 41 -118 20 -243 -10 -58 -15
-124 -12 -154 32 -301 41 -331 103 -343 39 -7 79 8 90 35 3 9 10 79 14 156 5
77 9 141 9 143 3 7 21 0 21 -8 0 -6 14 -41 32 -78 17 -37 34 -94 38 -127 4
-33 8 -54 9 -46 3 33 51 78 96 91 30 8 50 21 57 35 5 12 23 30 39 39 34 20 49
51 49 100 0 51 18 89 49 107 23 13 29 26 35 65 8 67 38 113 77 121 25 5 35 15
50 50 18 42 28 50 93 69 23 7 33 19 46 58 9 28 25 53 36 58 10 5 27 23 38 41
l18 32 15 -40 c8 -22 19 -56 25 -75 5 -19 14 -40 19 -46 11 -14 14 -92 6 -201
-4 -46 -3 -83 2 -83 5 0 11 -16 13 -35 3 -26 1 -32 -8 -24 -9 8 -11 5 -7 -10
3 -12 10 -21 15 -21 6 0 8 -11 6 -25 -4 -20 -1 -24 16 -22 13 1 21 -4 22 -16
1 -12 0 -13 -3 -2 -2 8 -9 15 -14 15 -11 0 -11 -27 0 -55 8 -19 8 -19 19 0 10
19 11 19 31 1 20 -18 20 -21 5 -43 -23 -35 -13 -55 20 -40 14 7 26 15 26 20 0
4 8 7 19 7 54 0 64 77 57 435 -3 165 -9 362 -12 439 -5 122 -4 142 12 172 10
19 22 34 26 34 5 0 8 9 8 19 0 11 7 26 15 35 10 10 12 17 5 21 -19 12 10 35
42 35 36 0 60 12 118 60 25 20 52 40 60 45 13 8 13 7 1 -8 -19 -24 -6 -33 26
-17 16 7 23 15 16 17 -25 9 -13 39 23 57 20 9 39 15 42 12 2 -3 -7 -11 -22
-17 -14 -7 -26 -19 -26 -28 0 -12 3 -12 12 -3 34 34 122 -6 134 -62 3 -17 10
-36 15 -42 15 -19 39 -107 40 -149 0 -22 4 -51 8 -65 7 -25 -7 -85 -64 -275
-14 -49 -32 -103 -39 -120 -20 -48 -31 -79 -90 -266 -31 -97 -74 -220 -97
-275 -22 -54 -56 -144 -76 -199 -19 -55 -40 -106 -45 -112 -6 -7 -8 -19 -5
-27 3 -8 3 -16 -1 -18 -4 -2 -22 -32 -41 -68 -18 -36 -49 -81 -67 -100 -19
-20 -34 -41 -34 -47 0 -6 -16 -17 -35 -23 -28 -9 -37 -19 -45 -51 -6 -22 -24
-62 -40 -90 -17 -27 -30 -54 -30 -59 0 -5 -12 -16 -28 -24 -38 -20 -57 -44
-71 -93 -6 -24 -16 -42 -20 -40 -9 2 -34 -29 -95 -118 -18 -27 -48 -62 -65
-78 -17 -15 -31 -34 -31 -42 0 -8 -5 -15 -11 -15 -12 0 -238 458 -313 635 -73
171 -149 325 -159 325 -5 0 -7 -6 -4 -12 3 -7 20 -47 37 -88 17 -41 35 -77 41
-78 5 -2 7 -8 4 -12 -3 -5 -1 -17 5 -27 15 -27 118 -260 142 -322 11 -29 67
-146 124 -259 77 -154 102 -213 99 -233 -12 -70 158 -329 215 -329 56 0 170
207 297 539 143 372 192 550 178 639 -14 90 -10 135 23 221 17 46 29 88 25 94
-3 5 -1 7 5 3 6 -4 13 7 17 26 4 18 11 38 15 43 4 6 20 48 35 95 15 47 38 119
52 160 14 41 27 82 28 90 5 38 19 78 37 107 11 18 17 37 14 42 -4 5 -1 13 5
16 5 4 8 14 5 22 -3 8 -2 12 2 9 5 -3 14 24 21 59 7 36 17 65 21 65 10 0 12 5
76 190 29 85 59 158 66 162 7 4 43 21 80 37 36 17 74 40 83 53 69 97 128 199
141 246 23 79 16 168 -18 212 -14 19 -29 48 -32 64 -8 34 -36 77 -79 123 -17
18 -29 34 -26 36 2 2 22 8 43 13 22 5 42 15 44 23 4 11 -2 12 -23 7 -38 -10
-70 14 -101 77 -15 28 -42 73 -60 98 -31 42 -37 79 -14 79 9 0 82 106 98 144
7 16 13 61 13 101 1 92 -21 136 -95 201 -52 44 -70 84 -39 84 7 0 13 5 13 11
0 5 5 7 12 3 7 -4 8 -3 4 4 -4 7 -2 12 5 12 42 0 290 281 258 292 -7 2 -3 17
9 38 23 40 39 109 47 195 3 33 8 87 11 120 l6 59 -48 -49 c-27 -28 -100 -94
-162 -148 -62 -55 -109 -104 -105 -109 3 -7 1 -8 -5 -4 -12 7 -65 -58 -85
-104 -7 -14 -14 -27 -17 -30 -3 -3 -13 -22 -23 -43 -9 -21 -21 -36 -25 -33 -5
3 -14 45 -21 93 -28 201 -44 282 -72 363 -41 117 -67 133 -109 65 l-20 -32 25
-74 c38 -111 132 -464 145 -547 7 -44 8 -78 3 -83 -5 -5 -22 -5 -41 1 -39 11
-128 -2 -169 -24 -37 -20 -83 -62 -118 -109 l-28 -38 -26 33 c-35 46 -83 94
-101 101 -12 4 -11 9 8 24 27 22 21 48 -12 57 -32 8 -96 67 -101 93 -3 16 5
27 30 42 19 11 36 30 39 43 2 13 9 52 16 88 6 36 23 91 37 122 25 57 25 58 10
132 -11 57 -12 86 -4 128 6 29 13 55 16 58 36 31 90 117 113 182 15 43 41 93
57 110 16 18 39 44 50 56 30 36 113 201 106 212 -3 6 -2 10 4 10 9 0 17 16 26
57 2 10 9 35 14 56 5 21 5 37 0 37 -5 0 -9 -6 -9 -14 0 -19 -42 -120 -52 -124
-4 -2 -8 -9 -8 -16 0 -24 -78 -172 -106 -201 -70 -74 -96 -123 -109 -208 -4
-27 -19 -52 -51 -85 -86 -88 -102 -146 -74 -256 20 -74 20 -75 1 -108 -22 -38
-61 -172 -61 -210 0 -21 -12 -35 -60 -66 l-59 -40 -10 27 c-9 24 -9 24 -6 -9
2 -19 4 -44 4 -55 1 -18 3 -17 14 5 14 28 47 40 47 17 0 -16 63 -87 77 -87 5
0 17 -7 27 -15 18 -14 18 -16 3 -33 -16 -17 -16 -20 4 -38 12 -10 35 -34 53
-53 17 -19 43 -47 57 -62 23 -25 26 -36 26 -101 0 -76 19 -153 56 -218 26 -47
94 -107 137 -122 56 -20 196 -16 257 6 44 17 54 17 68 6 14 -12 105 -180 105
-194 0 -2 -8 -2 -17 0 -16 4 -18 -3 -19 -53 -1 -73 -37 -160 -58 -141 -8 7
-10 15 -6 18 5 3 11 30 14 60 l6 55 -13 -45 c-19 -63 -45 -110 -61 -110 -18 0
-40 -63 -31 -89 9 -30 -10 -34 -42 -8 -57 48 -119 80 -214 112 -93 32 -97 32
-102 13 -4 -12 6 -32 26 -55 l31 -36 -34 8 c-50 11 -100 35 -135 65 l-30 25
23 -26 c26 -30 29 -43 5 -29 -10 5 -54 21 -98 36 -44 14 -88 33 -97 41 -33 30
-12 -24 25 -64 36 -41 0 -24 -45 20 -24 23 -56 68 -73 100 -39 79 -49 82 -43
13 3 -31 3 -56 1 -56 -1 0 -14 18 -28 39 -28 46 -62 79 -90 91 -19 8 -19 9 2
9 12 1 25 6 29 12 5 9 -9 10 -52 5 -68 -8 -114 -24 -114 -39 0 -6 -3 -7 -6 -4
-4 4 1 18 10 32 9 14 13 25 9 25 -5 0 -14 -9 -21 -20 -7 -11 -18 -17 -27 -14
-9 4 -15 0 -15 -9 0 -8 -8 -14 -17 -13 -12 1 -17 -6 -17 -17 1 -10 -1 -16 -4
-13 -9 10 -32 -16 -32 -36 0 -13 -5 -18 -14 -15 -17 7 -32 -53 -15 -64 7 -4 8
-9 1 -13 -5 -3 -13 2 -17 12 -5 13 -10 9 -25 -23 -19 -39 -19 -40 -20 -11 0
38 -15 23 -24 -24 -3 -21 -2 -30 3 -22 11 18 21 -33 14 -71 -4 -22 -8 -25 -15
-15 -6 9 -7 5 -3 -11 5 -17 4 -22 -5 -16 -8 5 -11 4 -6 -3 3 -6 -2 -16 -11
-21 -17 -10 -17 -12 1 -26 18 -14 18 -15 1 -21 -10 -4 -26 -2 -36 4 -10 6 -20
8 -23 3 -7 -11 4 -21 25 -21 10 0 21 -5 25 -12 4 -6 3 -8 -3 -5 -6 4 -13 -3
-16 -14 -5 -20 -11 -21 -61 -17 -43 4 -61 10 -77 29 -45 51 -51 106 -16 153
13 17 27 38 32 46 19 32 -24 -12 -46 -47 -17 -27 -20 -45 -17 -88 4 -49 2 -54
-19 -64 -59 -27 -83 -4 -103 92 -6 32 -14 56 -17 54 -4 -5 14 -117 24 -143 4
-10 -3 -14 -29 -14 -42 0 -80 42 -89 99 l-6 36 -2 -36 c0 -19 5 -41 11 -47 10
-10 10 -15 -2 -22 -19 -12 -36 3 -50 44 -24 75 -21 95 21 138 l40 41 -5 -54
c-2 -30 -2 -43 1 -29 15 86 21 94 72 113 64 23 119 70 204 177 146 183 163
195 312 206 112 9 238 40 317 80 44 22 65 29 62 19 -5 -12 0 -12 27 -5 30 9
67 36 97 69 21 25 13 -5 -9 -33 -19 -25 -18 -53 2 -40 5 3 7 10 3 15 -3 6 3
20 14 32 25 28 45 67 38 74 -3 3 -30 -13 -61 -37 -31 -24 -58 -41 -60 -38 -3
3 1 11 10 18 15 12 21 40 8 40 -3 0 -29 -17 -57 -39 -28 -21 -62 -44 -75 -51
-62 -32 -177 -62 -291 -76 -90 -11 -140 -22 -178 -40 -52 -25 -53 -26 -115
-10 -34 9 -118 21 -187 27 -110 10 -133 9 -190 -6 -100 -26 -95 -28 -97 42 -1
35 3 65 8 68 5 4 9 12 9 18 0 7 -9 1 -20 -13 -16 -21 -20 -22 -20 -7 0 10 6
30 14 45 7 15 16 36 20 47 5 19 3 21 -31 17 l-38 -4 26 28 c43 47 89 126 89
154 0 19 11 32 42 53 50 32 43 35 -12 7 l-40 -20 -1 20 c-3 40 -4 43 -23 50
-16 5 -13 10 23 39 22 18 41 39 41 46 0 8 11 22 25 33 32 25 31 32 -2 32 l-28
1 35 19 c23 13 29 19 17 20 -10 0 -15 5 -12 10 3 6 -1 13 -10 16 -13 6 -14 8
-3 15 10 7 8 9 -7 9 -43 2 -94 99 -95 179 l0 44 23 -20 c17 -16 97 -38 97 -26
0 11 -31 66 -58 105 -36 51 -58 110 -65 175 l-5 43 36 -27 37 -27 -27 30 c-29
31 -39 72 -15 58 6 -4 4 1 -5 12 -9 11 -20 40 -24 64 l-6 45 26 -30 27 -30
-21 35 c-28 49 -27 65 4 45 34 -23 39 -1 13 66 -11 30 -23 88 -27 129 -9 103
-27 173 -55 214 -21 31 -22 38 -11 88 7 34 16 53 23 51 12 -4 39 97 34 131 -4
28 8 68 19 61 6 -3 10 3 10 14 0 14 6 21 20 21 11 0 20 -7 20 -15 0 -9 11 -20
25 -25 14 -5 25 -14 25 -20 0 -5 6 -10 13 -10 6 0 30 -17 52 -38 25 -23 47
-36 59 -34 14 3 17 0 13 -12 -3 -8 -1 -18 5 -22 7 -4 8 -3 4 4 -4 7 -1 12 9
12 8 0 19 -10 24 -22 5 -13 18 -31 29 -41 20 -18 20 -18 15 1 -4 17 -1 20 16
15 12 -3 21 -10 21 -15 0 -5 18 -27 40 -49 22 -21 50 -55 63 -75 20 -28 26
-32 31 -19 9 24 7 37 -4 30 -5 -3 -10 -2 -10 3 0 22 14 18 42 -14 36 -41 49
-42 121 -9 30 14 75 27 100 29 25 2 50 7 56 10 6 4 11 2 11 -3 0 -6 -4 -11
-10 -11 -25 0 -5 -17 50 -43 48 -23 68 -27 102 -22 85 12 175 11 175 -3 0 -7
-7 -10 -16 -7 -12 3 -16 -2 -18 -22 0 -16 2 -21 7 -13 5 9 9 9 14 1 4 -6 -2
-27 -14 -46 -12 -19 -19 -45 -17 -57 4 -21 4 -21 6 3 1 28 65 109 85 109 7 0
46 31 87 70 41 38 77 70 82 70 4 0 7 5 7 11 0 6 -14 -1 -31 -15 -31 -26 -49
-33 -49 -18 0 5 18 18 40 31 22 12 40 20 40 17 0 -4 17 4 38 17 20 12 70 36
110 52 39 15 72 34 72 42 0 7 5 13 11 13 5 0 7 -5 4 -10 -8 -13 41 8 77 33 18
12 36 16 50 12 21 -7 22 -6 7 9 -13 14 -21 14 -50 5 -18 -7 -38 -16 -44 -22
-7 -7 -6 -8 3 -3 6 4 12 2 12 -5 0 -6 -8 -9 -20 -6 -33 9 -347 -134 -380 -173
-3 -3 -39 -20 -80 -36 -68 -28 -84 -31 -175 -29 -114 2 -149 15 -142 54 5 23
4 23 -58 17 -78 -8 -121 -22 -162 -52 -17 -13 -36 -24 -41 -24 -4 0 -31 33
-58 73 -26 39 -65 90 -85 112 -50 54 -104 108 -120 120 -97 74 -220 135 -271
135 -18 0 -43 -8 -55 -18z m125 -39 c31 -14 51 -28 44 -31 -7 -2 -10 -8 -6
-13 6 -11 -26 -12 -52 -2 -16 6 -16 7 2 14 17 7 17 8 2 8 -10 1 -18 5 -18 10
0 5 -13 12 -30 16 -16 4 -32 11 -35 16 -12 18 37 9 93 -18z m77 -43 c3 -5 1
-10 -4 -10 -6 0 -11 5 -11 10 0 6 2 10 4 10 3 0 8 -4 11 -10z m2 -56 c-3 -3
-12 -4 -19 -1 -8 3 -5 6 6 6 11 1 17 -2 13 -5z m38 -13 c-3 -6 3 -14 12 -20
10 -6 13 -11 6 -11 -6 0 -15 5 -18 10 -4 6 -12 7 -18 3 -7 -4 -6 0 2 10 14 18
26 23 16 8z m85 -76 c11 -13 10 -14 -4 -9 -9 3 -16 10 -16 15 0 13 6 11 20 -6z
m-945 -142 c-3 -26 -2 -32 3 -18 8 16 12 12 26 -32 10 -30 14 -63 11 -79 -5
-21 -4 -25 3 -15 12 16 23 -6 61 -122 17 -50 22 -81 17 -115 -5 -46 -5 -46 7
-15 l12 33 19 -59 c23 -72 15 -102 -51 -198 -24 -36 -42 -67 -40 -69 6 -7 66
82 92 137 15 33 26 48 30 38 34 -91 75 -229 75 -251 0 -41 -24 -94 -72 -156
l-41 -54 -57 168 c-31 93 -60 177 -64 186 -5 11 2 29 22 55 17 21 33 49 37 63
3 14 -8 1 -24 -27 -17 -29 -35 -53 -40 -53 -4 0 -27 50 -49 112 l-41 111 23
31 c23 32 49 86 41 86 -2 0 -11 -12 -19 -27 l-15 -28 -2 40 c-3 55 -3 65 5
100 l6 30 -12 -30 c-7 -16 -21 -44 -31 -62 -18 -34 -24 -61 -6 -30 5 9 14 17
18 17 14 0 19 -73 7 -92 -14 -24 -26 -23 -26 3 0 11 -4 18 -8 15 -4 -2 -8 3
-9 12 -1 20 -68 208 -83 234 -15 27 -13 28 33 28 48 0 124 32 133 55 11 27 15
16 9 -22z m640 -443 c3 -5 1 -10 -4 -10 -6 0 -11 5 -11 10 0 6 2 10 4 10 3 0
8 -4 11 -10z m1695 -110 c0 -13 -5 -18 -15 -14 -18 7 -19 -11 -4 -55 18 -50 3
-48 -21 2 -21 44 -21 46 -3 65 23 26 43 27 43 2z m39 -104 c42 -132 96 -486
73 -486 -10 0 -20 40 -42 170 -6 36 -17 88 -24 115 -8 28 -14 79 -15 115 0 36
-7 86 -15 112 -21 71 -1 48 23 -26z m-1772 42 c-3 -8 -6 -5 -6 6 -1 11 2 17 5
13 3 -3 4 -12 1 -19z m2324 8 c-6 -7 -13 -58 -16 -112 -3 -84 -8 -107 -35
-160 -17 -34 -46 -76 -66 -93 -33 -30 -39 -56 -10 -45 8 3 17 0 22 -7 4 -7 3
-10 -3 -6 -5 3 -36 -26 -69 -64 -32 -39 -86 -92 -119 -118 -61 -48 -152 -111
-161 -111 -22 0 39 115 105 196 152 187 198 246 215 276 25 43 9 27 -39 -42
-21 -30 -66 -86 -100 -125 -76 -87 -139 -173 -162 -219 -17 -37 -39 -50 -29
-18 3 9 10 40 16 67 24 109 86 240 149 310 19 22 78 75 130 118 53 42 95 82
93 88 -1 6 2 7 8 4 14 -9 52 24 44 37 -3 5 2 16 12 23 24 18 29 19 15 1z
m-2619 -286 c0 -19 3 -29 6 -21 3 8 19 -26 37 -75 24 -67 30 -96 24 -117 -11
-39 -52 -108 -78 -131 -12 -11 -21 -24 -21 -30 0 -26 92 99 105 143 10 32 25
8 24 -39 -1 -40 -39 -116 -57 -113 -6 2 -9 -4 -6 -12 5 -11 2 -13 -10 -9 -9 3
-13 11 -9 17 3 6 1 7 -5 3 -7 -4 -10 -17 -6 -30 3 -14 0 -27 -9 -35 -15 -12
-16 -9 -42 59 -1 3 -4 12 -8 20 -3 8 -18 49 -32 90 -14 41 -32 78 -38 82 -8 5
-7 8 4 8 25 0 119 114 119 144 0 6 -12 -7 -27 -28 l-26 -39 -18 22 c-17 21
-18 21 -16 1 1 -11 7 -20 14 -20 7 0 13 -5 13 -11 0 -6 -7 -8 -16 -5 -10 4
-14 2 -11 -6 5 -15 -10 -48 -22 -48 -5 0 -16 20 -24 44 -14 41 -14 46 3 61 13
12 19 13 22 4 3 -9 7 -7 11 5 4 10 3 15 -3 11 -6 -3 -10 -2 -10 4 0 5 4 12 9
16 14 8 57 89 65 121 l8 29 14 -40 c8 -22 15 -56 16 -75z m147 -376 l29 -80
-23 -48 c-24 -51 -93 -129 -106 -121 -4 3 -19 36 -34 74 l-26 70 43 53 c24 29
52 72 63 95 11 23 21 40 23 39 1 -2 15 -39 31 -82z m1934 -30 c33 -6 37 -10
37 -35 0 -27 -2 -29 -27 -23 -25 7 -27 6 -14 -9 8 -10 28 -17 47 -17 31 0 39
8 35 32 0 4 10 15 24 24 24 16 27 15 74 -17 27 -19 66 -56 86 -84 37 -49 37
-51 33 -126 -11 -191 -152 -324 -321 -304 -90 10 -117 16 -111 26 3 5 -2 6
-11 3 -17 -7 -95 67 -95 90 0 8 -6 16 -13 19 -19 7 -47 113 -46 168 1 38 3 34
9 -22 6 -45 17 -80 36 -110 32 -52 102 -121 114 -114 5 3 12 0 15 -6 4 -5 13
-8 21 -5 9 3 11 0 7 -11 -5 -11 0 -10 15 5 12 12 21 27 20 33 -2 6 2 13 7 15
13 5 14 -35 2 -53 -5 -8 -4 -13 2 -13 14 0 39 52 34 70 -3 9 -1 11 4 5 4 -5
18 -11 31 -13 22 -2 22 -1 7 14 -9 9 -13 19 -9 23 4 3 9 0 11 -7 4 -10 8 -10
19 -1 8 6 26 9 41 7 25 -3 28 -1 28 27 0 16 -4 35 -10 41 -16 16 -44 24 -50
14 -4 -6 0 -10 8 -10 8 0 20 -7 27 -15 10 -12 10 -18 0 -30 -17 -20 -33 -14
-42 16 -6 19 -7 17 -3 -8 2 -18 0 -33 -5 -33 -6 0 -10 5 -10 10 0 7 -6 7 -19
0 -22 -11 -41 -13 -26 -2 6 4 16 18 24 32 13 22 12 24 -1 13 -8 -7 -17 -11
-20 -8 -3 3 -11 -1 -17 -9 -11 -13 -15 -13 -31 1 -11 9 -17 20 -14 25 3 4 2
14 -3 21 -7 12 -9 17 -12 36 0 6 -11 8 -23 6 -21 -4 -22 -3 -5 9 21 16 22 26
2 26 -8 0 -15 -4 -15 -10 0 -5 -5 -10 -11 -10 -6 0 -8 9 -4 20 5 14 2 20 -9
20 -10 0 -16 -9 -16 -22 0 -19 -2 -20 -10 -8 -9 13 -11 13 -19 0 -6 -8 -14
-11 -18 -6 -4 4 1 14 11 22 11 8 17 14 14 14 -4 0 -14 3 -24 7 -12 4 -15 3
-10 -5 4 -7 2 -12 -3 -12 -18 0 -12 78 8 118 28 53 90 118 131 135 42 18 44
19 93 11z m-1881 -121 c19 -54 12 -72 -41 -104 -41 -25 -55 -25 -42 -1 7 14 6
19 -4 19 -8 0 -11 -5 -8 -10 3 -6 1 -7 -6 -3 -8 6 -10 1 -6 -17 5 -17 2 -26
-10 -30 -36 -14 -26 24 18 71 24 27 50 65 58 85 7 20 16 37 19 37 3 0 13 -21
22 -47z m116 11 c2 -1 -10 -10 -28 -19 -37 -19 -60 -14 -60 14 0 17 5 18 43
14 23 -3 44 -7 45 -9z m2 -69 c0 -4 -7 -20 -16 -37 -16 -30 -17 -31 -30 -13
-15 20 -18 38 -7 48 8 8 53 9 53 2z m-74 -59 c8 -43 -13 -80 -67 -121 -22 -16
-38 -34 -36 -40 2 -6 27 -9 61 -7 55 3 57 2 47 -17 -14 -25 -14 -68 -1 -76 6
-3 10 -19 10 -35 0 -16 5 -41 10 -55 9 -23 7 -30 -12 -46 -30 -24 -35 -24 -44
4 -4 12 -33 86 -66 165 -47 114 -57 146 -48 157 7 8 15 13 19 11 3 -2 14 7 24
20 24 32 5 31 -27 -1 -28 -28 -36 -31 -36 -12 0 15 67 50 79 42 5 -2 19 7 31
20 32 34 48 31 56 -9z m1661 -112 c9 4 13 1 11 -6 -3 -7 -11 -13 -18 -13 -20
0 -34 30 -25 51 8 17 9 15 13 -9 2 -21 8 -27 19 -23z m68 -3 c-6 -21 -35 -30
-35 -11 0 6 7 10 15 10 8 0 14 3 14 8 -3 15 1 25 7 19 3 -3 3 -15 -1 -26z m25
-61 c0 -5 -2 -10 -4 -10 -3 0 -8 5 -11 10 -3 6 -1 10 4 10 6 0 11 -4 11 -10z
m-55 -30 c3 -5 1 -10 -4 -10 -6 0 -11 5 -11 10 0 6 2 10 4 10 3 0 8 -4 11 -10z
m-1216 -168 c41 -9 76 -22 78 -27 2 -6 -16 -31 -38 -55 -23 -25 -66 -75 -95
-112 -61 -75 -87 -96 -173 -137 -34 -16 -82 -48 -107 -71 -46 -42 -46 -43 -42
-96 l5 -53 -45 -32 -45 -33 -44 48 c-48 54 -83 147 -83 225 0 63 -9 91 -26 84
-19 -7 -18 -1 8 48 43 83 183 202 269 228 47 15 247 5 338 -17z m1656 -190
c-3 -3 -11 0 -18 7 -9 10 -8 11 6 5 10 -3 15 -9 12 -12z m-1081 -59 c38 -38
77 -85 87 -105 23 -46 39 -49 39 -8 0 17 5 30 10 30 6 0 10 -6 10 -14 0 -8 8
-17 17 -20 13 -5 6 -14 -33 -39 -29 -19 -57 -48 -70 -72 -19 -38 -24 -40 -75
-46 -30 -3 -95 -20 -145 -36 -49 -17 -103 -33 -121 -36 l-32 -6 1 62 c1 34 0
76 -2 94 -2 21 3 38 15 50 13 13 17 14 13 3 -19 -47 -18 -51 6 -18 14 20 26
40 26 44 0 3 11 15 25 26 14 11 25 23 25 28 0 12 70 80 82 80 6 0 6 6 -1 14
-10 11 -8 17 6 25 33 19 49 11 117 -56z m1131 -15 c31 -32 47 -59 59 -102 25
-85 16 -120 -47 -180 -29 -27 -43 -44 -32 -38 51 30 105 97 105 132 0 33 23
19 33 -20 5 -21 4 -57 -3 -97 -13 -67 -81 -218 -109 -241 -30 -25 -121 -62
-151 -62 l-30 0 0 64 c0 35 -2 71 -5 78 -4 9 4 19 17 26 22 11 22 11 -4 6 -21
-5 -29 -1 -39 18 -16 30 -32 42 -96 73 -95 46 -173 27 -274 -65 -54 -51 -121
-90 -153 -90 -49 0 -112 -65 -124 -129 -10 -48 -6 -145 11 -281 22 -173 34
-632 18 -714 -12 -65 -25 -88 -47 -79 -22 8 -90 132 -103 188 -7 28 -13 145
-15 260 -2 185 -5 217 -23 267 -12 31 -32 71 -44 87 -24 33 -92 71 -126 71
-11 0 -37 13 -57 29 -64 51 -113 59 -216 36 -20 -5 -18 -2 10 14 41 23 34 27
-14 7 -53 -22 -113 -29 -185 -21 -36 4 -59 10 -51 13 8 3 54 22 101 43 52 23
95 37 105 33 15 -4 16 -4 5 4 -11 8 -9 12 10 23 13 7 28 12 32 11 5 -1 7 1 4
5 -2 5 14 24 37 43 23 19 52 54 64 78 29 56 23 53 -17 -7 -46 -72 -114 -121
-248 -180 -209 -93 -257 -119 -316 -171 -76 -68 -128 -173 -135 -272 -3 -38
-9 -71 -14 -74 -4 -3 -7 0 -6 7 2 7 -4 13 -12 14 -9 0 -14 8 -12 20 3 17 2 17
-14 5 -15 -14 -16 -13 -10 8 4 12 4 22 -1 22 -10 0 -43 53 -43 69 0 6 5 11 10
11 6 0 10 -6 10 -13 0 -8 16 -31 35 -53 l36 -39 -39 60 c-49 75 -66 144 -60
244 3 42 2 67 -3 56 -11 -30 -11 -137 2 -195 9 -40 8 -55 -1 -63 -10 -9 -12
-8 -7 5 4 10 2 28 -4 40 -9 21 -9 21 -4 -4 3 -16 1 -28 -5 -28 -6 0 -4 -12 5
-30 21 -41 19 -42 -15 -10 -16 15 -43 30 -60 34 -79 15 -139 107 -148 226 -4
63 -2 75 31 147 20 43 38 87 41 98 7 23 172 196 230 240 37 28 39 29 52 10 27
-39 37 -47 57 -41 11 3 32 -1 47 -9 29 -15 151 -18 187 -4 17 6 32 3 55 -11
68 -41 156 -35 225 16 18 13 38 21 47 18 17 -7 159 22 189 38 26 13 123 38
152 38 17 0 32 12 52 42 15 23 50 57 76 76 48 34 48 35 85 19 33 -15 70 -21
96 -18 6 1 -3 15 -19 31 l-30 31 36 -15 c20 -8 56 -17 81 -20 25 -3 58 -12 74
-20 15 -9 49 -21 74 -27 l47 -12 -3 -56 c-3 -46 -2 -52 7 -31 6 14 9 37 6 52
-3 21 2 32 20 43 13 9 21 21 17 26 -4 7 1 7 15 0 17 -9 21 -9 21 3 0 8 -6 17
-12 19 -9 4 -8 6 2 6 8 1 29 -6 45 -15 17 -9 50 -27 75 -39 25 -13 54 -32 64
-44 24 -26 38 -26 61 -1 14 15 15 23 6 34 -8 10 -9 16 -1 21 6 3 8 11 5 16 -4
5 -3 19 1 32 l8 22 5 -24 c4 -13 16 -27 28 -32 17 -6 21 -5 16 7 -3 8 1 22 10
32 23 27 55 94 62 135 4 20 12 37 17 37 6 0 30 -19 53 -42z m-505 -118 c19
-11 32 -19 29 -20 -11 0 -79 30 -79 35 0 9 14 5 50 -15z m-1785 -136 c10 -16
39 -50 63 -76 25 -27 40 -48 34 -48 -6 0 -40 -30 -75 -67 -58 -59 -68 -65 -82
-53 -32 27 -65 107 -65 159 0 59 10 89 52 155 l31 48 12 -45 c6 -25 20 -58 30
-73z m781 -21 c-10 -10 -19 5 -10 18 6 11 8 11 12 0 2 -7 1 -15 -2 -18z m1474
-321 c0 -15 -96 -62 -125 -62 -20 0 -26 4 -23 18 2 12 16 19 48 22 25 3 54 11
65 18 24 14 35 15 35 4z m-1631 -225 c4 -11 17 -21 29 -22 18 -1 19 1 11 17
-9 17 -7 19 18 16 22 -2 29 -9 31 -30 4 -34 36 -38 52 -8 6 11 17 20 25 20 18
0 20 -17 3 -22 -6 -2 -8 -9 -4 -16 4 -7 28 -10 69 -6 53 4 70 1 111 -21 27
-14 58 -25 68 -25 10 0 18 -4 18 -10 0 -5 25 -24 55 -41 30 -17 55 -35 55 -41
0 -5 5 -6 10 -3 13 8 13 1 -4 -40 -13 -30 -27 -40 -57 -37 -3 0 -6 -16 -7 -36
-4 -52 -26 -82 -61 -82 -16 0 -39 -11 -55 -25 -15 -14 -33 -25 -40 -25 -8 0
-16 -9 -19 -20 -3 -11 -13 -23 -24 -26 -46 -15 -61 -29 -86 -84 -15 -32 -27
-72 -27 -89 0 -21 -5 -31 -15 -31 -14 0 -20 -12 -16 -33 1 -5 -3 -6 -9 -2 -12
8 -45 -62 -55 -117 -5 -25 -14 -39 -27 -44 -15 -4 -19 -13 -16 -41 2 -24 -2
-38 -11 -41 -10 -3 -12 1 -8 17 6 25 -16 28 -58 9 -25 -11 -35 -38 -14 -38 5
0 7 -4 4 -10 -3 -5 -11 -10 -17 -10 -6 0 -8 3 -5 7 4 3 2 13 -5 20 -13 16 -80
177 -134 323 -19 52 -41 111 -49 130 -49 126 -63 175 -55 180 5 3 10 35 12 72
2 36 6 64 10 62 11 -7 50 35 43 46 -3 5 3 11 14 15 17 5 49 61 43 77 -1 4 5 5
14 1 10 -4 17 2 21 16 3 13 11 20 19 17 9 -3 11 0 7 11 -5 13 -2 15 16 10 13
-3 20 -3 17 1 -9 9 66 41 82 35 7 -3 17 -15 21 -26z m-299 -532 c23 -60 49
-126 57 -145 19 -43 22 -107 12 -268 -10 -151 -26 -192 -74 -192 -41 0 -52 24
-65 141 -5 49 -14 105 -21 124 -10 28 -10 53 0 127 8 51 15 115 17 141 2 26 6
52 9 56 2 5 0 34 -7 66 -9 47 -9 58 3 66 20 12 22 7 69 -116z m612 33 c-6 -6
-15 -8 -19 -4 -4 4 -1 11 7 16 19 12 27 3 12 -12z m-196 -373 c-3 -8 -10 -15
-15 -15 -5 0 -4 11 2 25 12 25 23 16 13 -10z m848 -677 c-122 -371 -272 -738
-344 -842 -44 -65 -62 -62 -120 24 -8 12 -22 32 -31 44 -9 11 -35 55 -57 96
-36 67 -40 78 -29 99 7 14 30 34 51 45 42 23 43 23 79 107 16 37 35 63 55 75
30 17 42 39 42 80 0 22 51 80 80 89 9 3 28 26 41 50 13 25 26 45 30 45 15 0
49 43 49 62 0 40 39 105 73 121 45 22 67 45 107 114 l35 61 3 -34 c2 -20 -22
-108 -64 -236z m-503 -501 c-10 -9 -11 -8 -5 6 3 10 9 15 12 12 3 -3 0 -11 -7
-18z m-56 -27 c-3 -5 -10 -10 -16 -10 -5 0 -9 5 -9 10 0 6 7 10 16 10 8 0 12
-4 9 -10z"/>
<path d="M412 5555 c0 -16 2 -22 5 -12 2 9 2 23 0 30 -3 6 -5 -1 -5 -18z"/>
<path d="M448 5445 c-3 -11 -9 -29 -13 -40 -3 -11 1 -7 10 8 9 16 15 33 12 40
-2 6 -6 3 -9 -8z"/>
<path d="M526 5175 c-9 -26 -7 -32 5 -12 6 10 9 21 6 23 -2 3 -7 -2 -11 -11z"/>
<path d="M2675 4260 c-3 -5 -2 -10 4 -10 5 0 13 5 16 10 3 6 2 10 -4 10 -5 0
-13 -4 -16 -10z"/>
<path d="M2703 4233 c4 -3 0 -14 -9 -24 -15 -16 -15 -20 0 -40 l15 -22 -2 26
c-1 14 2 26 7 26 15 -1 26 25 13 33 -15 10 -33 10 -24 1z"/>
<path d="M2790 4230 c0 -5 5 -10 11 -10 5 0 7 5 4 10 -3 6 -8 10 -11 10 -2 0
-4 -4 -4 -10z"/>
<path d="M2622 4197 c-14 -39 -15 -47 -4 -47 4 0 13 18 19 40 12 48 2 53 -15
7z"/>
<path d="M2665 4220 c3 -5 8 -10 11 -10 2 0 4 5 4 10 0 6 -5 10 -11 10 -5 0
-7 -4 -4 -10z"/>
<path d="M2935 4210 c3 -5 15 -10 25 -10 61 0 101 -196 55 -267 -20 -30 -16
-35 -46 45 -8 22 -31 46 -70 73 -64 43 -83 69 -74 99 3 10 1 21 -5 25 -6 4
-10 -8 -10 -31 0 -31 7 -44 42 -76 23 -21 36 -38 29 -38 -7 0 -9 -5 -5 -11 4
-8 9 -7 16 2 7 11 11 11 15 1 2 -6 9 -10 13 -7 12 8 41 -38 49 -78 15 -73 81
-10 81 78 0 81 -32 166 -71 189 -30 18 -53 21 -44 6z"/>
<path d="M2650 4190 c0 -5 5 -10 10 -10 6 0 10 5 10 10 0 6 -4 10 -10 10 -5 0
-10 -4 -10 -10z"/>
<path d="M2686 4130 c16 -16 30 -27 33 -25 6 7 -40 55 -52 55 -5 0 4 -13 19
-30z"/>
<path d="M2617 4133 c-11 -10 -8 -53 3 -53 6 0 10 9 10 20 0 11 5 20 11 20 6
0 8 -10 5 -22 -3 -13 -3 -17 0 -11 4 9 11 10 25 3 24 -13 24 -2 0 28 -19 22
-41 28 -54 15z"/>
<path d="M2580 4110 c0 -5 5 -10 10 -10 6 0 10 5 10 10 0 6 -4 10 -10 10 -5 0
-10 -4 -10 -10z"/>
<path d="M2910 3990 c-13 -8 -12 -10 3 -10 9 0 17 -5 17 -12 0 -6 3 -9 6 -5 3
3 2 12 -3 21 -6 10 -13 12 -23 6z"/>
<path d="M2761 3961 c-12 -22 -5 -27 19 -11 11 7 12 12 3 21 -8 8 -14 6 -22
-10z"/>
<path d="M2800 3959 c0 -5 5 -7 10 -4 6 3 10 8 10 11 0 2 -4 4 -10 4 -5 0 -10
-5 -10 -11z"/>
<path d="M2870 3870 c-9 -6 -11 -10 -3 -10 7 0 11 -6 9 -12 -1 -7 -1 -10 1 -6
3 4 4 10 3 14 -1 4 4 11 12 15 7 5 9 9 3 9 -5 0 -17 -5 -25 -10z"/>
<path d="M2826 3828 c2 -4 -4 -12 -13 -18 -10 -6 -11 -9 -3 -6 8 3 23 9 33 12
23 8 22 20 -2 20 -11 0 -18 -4 -15 -8z"/>
<path d="M3036 3167 c-9 -24 -31 -59 -49 -78 -27 -28 -28 -31 -7 -18 25 16 88
124 78 134 -3 3 -13 -14 -22 -38z"/>
<path d="M3211 3133 c-10 -26 -10 -27 4 -9 8 11 15 23 15 28 0 15 -7 8 -19
-19z"/>
<path d="M2616 3112 c-4 -11 -15 -27 -26 -37 -11 -10 -20 -22 -20 -27 0 -11
36 26 50 52 6 12 9 24 7 27 -3 2 -8 -4 -11 -15z"/>
<path d="M3174 3078 l-19 -23 23 19 c12 11 22 21 22 23 0 8 -8 2 -26 -19z"/>
<path d="M3129 3043 c-13 -16 -12 -17 4 -4 16 13 21 21 13 21 -2 0 -10 -8 -17
-17z"/>
<path d="M1030 2844 c-22 -20 -39 -38 -37 -40 2 -2 23 14 46 36 52 50 45 53
-9 4z"/>
<path d="M966 2773 c-6 -14 -5 -15 5 -6 7 7 10 15 7 18 -3 3 -9 -2 -12 -12z"/>
<path d="M941 2733 c-24 -46 -41 -132 -39 -202 l1 -76 7 95 c4 56 15 116 28
148 20 51 22 69 3 35z"/>
<path d="M911 2424 c0 -11 3 -14 6 -6 3 7 2 16 -1 19 -3 4 -6 -2 -5 -13z"/>
<path d="M1438 2623 c7 -3 16 -2 19 1 4 3 -2 6 -13 5 -11 0 -14 -3 -6 -6z"/>
<path d="M1330 2481 c0 -6 5 -13 10 -16 6 -3 10 1 10 9 0 9 -4 16 -10 16 -5 0
-10 -4 -10 -9z"/>
<path d="M1356 2435 c4 -8 8 -15 10 -15 2 0 4 7 4 15 0 8 -4 15 -10 15 -5 0
-7 -7 -4 -15z"/>
<path d="M1365 2390 c-3 -6 1 -7 9 -4 18 7 21 14 7 14 -6 0 -13 -4 -16 -10z"/>
<path d="M2294 737 c-12 -17 -55 -99 -95 -182 -40 -82 -81 -156 -91 -163 -10
-7 -18 -22 -18 -32 0 -41 -44 -27 -63 20 -8 21 -7 -70 1 -95 5 -15 17 -20 44
-21 22 -1 35 2 32 8 -3 5 3 20 15 32 30 32 87 129 102 173 6 21 24 64 39 95
15 31 25 59 23 62 -3 3 1 20 9 38 14 29 31 98 25 98 -1 0 -12 -15 -23 -33z"/>
<path d="M1185 5802 c40 -19 57 -20 39 -2 -5 5 -25 12 -44 15 l-35 6 40 -19z"/>
<path d="M1043 5745 c0 -27 2 -38 4 -22 2 15 2 37 0 50 -2 12 -4 0 -4 -28z"/>
<path d="M1190 5723 c0 -5 5 -15 10 -23 8 -13 10 -12 10 3 0 24 11 22 58 -13
49 -35 58 -38 34 -9 -30 36 -112 67 -112 42z"/>
<path d="M2578 5714 c-37 -19 -36 -25 2 -11 17 6 30 15 30 19 0 10 0 10 -32
-8z"/>
<path d="M2604 5695 c-10 -8 -14 -15 -8 -15 5 0 19 7 30 15 10 8 14 15 8 15
-5 0 -19 -7 -30 -15z"/>
<path d="M1347 5668 c17 -18 35 -42 41 -53 8 -14 11 -15 12 -5 0 16 -61 90
-75 90 -5 0 5 -15 22 -32z"/>
<path d="M1046 5667 c3 -10 9 -15 12 -12 3 3 0 11 -7 18 -10 9 -11 8 -5 -6z"/>
<path d="M997 5649 c4 -13 8 -18 11 -10 2 7 -1 18 -6 23 -8 8 -9 4 -5 -13z"/>
<path d="M2556 5654 c-26 -9 -46 -17 -43 -20 5 -5 107 25 107 32 0 6 -11 4
-64 -12z"/>
<path d="M1245 5650 c4 -6 11 -8 16 -5 5 4 19 -1 31 -9 33 -23 45 -19 15 4
-26 21 -73 28 -62 10z"/>
<path d="M2529 5587 c-14 -7 -34 -21 -45 -31 -20 -21 -18 -20 39 9 20 10 37
22 37 27 0 4 -1 8 -2 7 -2 0 -15 -6 -29 -12z"/>
<path d="M1096 5575 c4 -8 11 -15 16 -15 6 0 5 6 -2 15 -7 8 -14 15 -16 15 -2
0 -1 -7 2 -15z"/>
<path d="M1276 5581 c-3 -5 5 -11 19 -13 30 -6 32 -2 6 12 -11 6 -22 6 -25 1z"/>
<path d="M1844 5561 c11 -18 37 -247 35 -315 0 -39 2 -81 6 -93 5 -15 3 -23
-4 -23 -6 0 -11 6 -11 14 0 19 -26 40 -34 27 -4 -5 -2 -12 4 -16 13 -8 13 -42
0 -50 -6 -4 -17 9 -25 27 -9 20 -14 26 -15 15 0 -10 5 -27 10 -38 15 -28 1
-47 -17 -23 -13 17 -14 15 -8 -18 9 -46 0 -47 -39 -8 -40 41 -55 38 -19 -3 16
-18 35 -49 43 -68 8 -18 20 -40 27 -47 15 -16 16 -22 4 -41 -8 -12 -11 -9 -16
11 -4 15 -15 34 -26 44 -17 16 -17 12 5 -37 13 -30 27 -73 31 -96 7 -43 18
-54 29 -30 6 11 -1 -20 -11 -53 -4 -13 -4 -13 6 0 10 12 11 8 7 -17 -2 -19 0
-33 6 -33 7 0 8 -14 5 -35 -5 -30 -3 -35 14 -35 11 0 19 -7 19 -16 0 -9 -5
-12 -12 -8 -7 4 -8 3 -4 -4 4 -7 16 -12 27 -12 10 0 19 -4 19 -10 0 -5 5 -10
11 -10 6 0 8 7 5 16 -5 12 -2 15 13 11 14 -3 17 0 14 14 -4 14 0 17 19 12 13
-3 18 -1 12 4 -17 13 -25 43 -10 37 11 -4 12 4 6 35 -4 22 -4 45 0 51 4 7 5
21 2 33 -3 13 -1 18 5 14 7 -5 9 0 6 13 -3 12 2 28 10 38 10 11 14 27 10 40
-3 14 -1 22 7 22 9 0 11 10 7 30 -4 17 -2 30 3 30 5 0 7 10 5 22 -6 28 11 48
36 43 24 -5 59 59 58 107 -1 28 -3 24 -18 -26 -9 -33 -22 -61 -28 -63 -20 -7
-39 88 -22 112 3 6 3 30 0 55 -4 25 -3 57 2 73 5 15 6 35 2 45 -9 19 -9 19
-19 115 -6 51 -11 67 -23 67 -13 0 -15 -9 -9 -52 24 -200 20 -248 -24 -300
-23 -28 -30 -21 -30 31 0 30 -5 51 -12 53 -7 3 -13 15 -13 29 -1 13 -5 53 -9
89 -4 36 -9 81 -12 99 -2 19 -10 39 -18 43 -8 4 -17 22 -21 38 -4 17 -11 30
-16 30 -6 0 -8 -4 -5 -9z m83 -383 c-3 -8 -6 -5 -6 6 -1 11 2 17 5 13 3 -3 4
-12 1 -19z"/>
<path d="M1120 5545 c0 -5 5 -17 10 -25 5 -8 10 -10 10 -5 0 6 -5 17 -10 25
-5 8 -10 11 -10 5z"/>
<path d="M1193 5542 c-13 -8 -36 -62 -29 -69 2 -3 7 6 11 19 4 13 14 31 23 41
16 18 14 21 -5 9z"/>
<path d="M1650 5535 c0 -3 7 -17 16 -30 9 -14 13 -33 9 -45 -4 -11 -2 -20 4
-20 21 0 106 -207 95 -233 -3 -8 1 -17 9 -20 12 -5 13 4 1 64 -24 129 -73 293
-74 252 0 -7 -5 -13 -12 -13 -6 0 -9 3 -5 6 3 3 -3 14 -14 25 -19 19 -29 24
-29 14z"/>
<path d="M1300 5526 c0 -2 9 -6 20 -9 11 -3 18 -1 14 4 -5 9 -34 13 -34 5z"/>
<path d="M1420 5524 c0 -6 7 -19 16 -30 14 -18 14 -18 3 6 -14 31 -19 36 -19
24z"/>
<path d="M2475 5510 l-40 -7 47 -2 c26 0 50 4 53 9 7 11 1 11 -60 0z"/>
<path d="M1310 5506 c0 -3 9 -10 20 -16 11 -6 20 -8 20 -6 0 3 -9 10 -20 16
-11 6 -20 8 -20 6z"/>
<path d="M1340 5435 c13 -14 26 -25 28 -25 3 0 -5 11 -18 25 -13 14 -26 25
-28 25 -3 0 5 -11 18 -25z"/>
<path d="M2430 5452 c-14 -2 -29 -8 -35 -14 -7 -7 -2 -9 17 -4 34 8 47 -11 16
-23 -23 -10 -23 -10 3 -10 28 -1 45 22 32 43 -5 6 -19 10 -33 8z"/>
<path d="M1580 5445 c0 -5 5 -17 10 -25 5 -8 10 -10 10 -5 0 6 -5 17 -10 25
-5 8 -10 11 -10 5z"/>
<path d="M1101 5414 c0 -11 3 -14 6 -6 3 7 2 16 -1 19 -3 4 -6 -2 -5 -13z"/>
<path d="M1260 5427 c0 -2 15 -16 33 -33 l32 -29 -29 33 c-28 30 -36 37 -36
29z"/>
<path d="M2235 5409 c-4 -6 -5 -12 -2 -15 2 -3 7 2 10 11 7 17 1 20 -8 4z"/>
<path d="M1261 5385 c0 -11 6 -29 14 -39 8 -11 15 -15 15 -10 0 6 -4 14 -9 20
-5 5 -11 18 -14 29 l-5 20 -1 -20z"/>
<path d="M2315 5380 c-3 -6 1 -7 9 -4 18 7 21 14 7 14 -6 0 -13 -4 -16 -10z"/>
<path d="M1240 5356 c0 -2 8 -10 18 -17 15 -13 16 -12 3 4 -13 16 -21 21 -21
13z"/>
<path d="M1250 5291 c5 -11 15 -23 21 -27 6 -3 3 5 -6 20 -20 30 -30 35 -15 7z"/>
<path d="M2321 5254 c0 -11 3 -14 6 -6 3 7 2 16 -1 19 -3 4 -6 -2 -5 -13z"/>
<path d="M2271 5244 c0 -11 3 -14 6 -6 3 7 2 16 -1 19 -3 4 -6 -2 -5 -13z"/>
<path d="M2342 5165 c0 -16 2 -22 5 -12 2 9 2 23 0 30 -3 6 -5 -1 -5 -18z"/>
<path d="M3040 5126 c-17 -21 -9 -61 12 -60 10 1 15 -2 12 -7 -7 -12 3 -11 27
1 19 11 24 35 13 64 -8 20 -48 21 -64 2z"/>
<path d="M1350 5011 c0 -5 5 -13 10 -16 6 -3 10 -2 10 4 0 5 -4 13 -10 16 -5
3 -10 2 -10 -4z"/>
<path d="M1700 5006 c0 -2 8 -10 18 -17 15 -13 16 -12 3 4 -13 16 -21 21 -21
13z"/>
<path d="M2035 5000 c3 -5 8 -10 11 -10 2 0 4 5 4 10 0 6 -5 10 -11 10 -5 0
-7 -4 -4 -10z"/>
<path d="M1500 4985 c-23 -13 -20 -21 5 -15 69 17 81 17 124 4 57 -17 92 -51
97 -96 2 -18 6 -39 9 -46 6 -16 -12 -51 -34 -70 -14 -12 -14 -13 2 -8 11 4 16
2 12 -5 -4 -5 -15 -7 -26 -4 -11 4 -19 2 -19 -4 0 -10 21 -16 43 -12 4 0 7
-10 7 -22 0 -13 9 -32 20 -42 11 -10 20 -24 20 -32 0 -7 5 -13 10 -13 13 0 13
13 -1 27 -9 9 -9 20 0 44 34 99 -17 247 -100 289 -45 24 -132 26 -169 5z"/>
<path d="M2164 4984 c-10 -8 -13 -12 -6 -9 8 4 26 11 40 15 22 7 23 8 6 9 -11
1 -29 -6 -40 -15z"/>
<path d="M2082 4923 c-26 -27 -50 -47 -53 -46 -4 1 -5 -6 -2 -16 3 -10 0 -22
-6 -25 -6 -4 -11 -15 -11 -24 0 -9 12 3 26 28 14 25 44 64 67 88 23 23 38 42
34 42 -5 0 -29 -21 -55 -47z"/>
<path d="M1435 4940 c3 -5 8 -10 11 -10 2 0 4 5 4 10 0 6 -5 10 -11 10 -5 0
-7 -4 -4 -10z"/>
<path d="M2185 4931 c-79 -37 -139 -122 -171 -245 -11 -41 -11 -52 1 -69 13
-18 14 -17 25 23 6 24 19 50 27 58 14 14 17 14 29 -3 10 -13 17 -15 26 -8 7 6
24 13 38 16 61 15 120 109 125 199 3 48 2 48 -29 48 -17 0 -49 -9 -71 -19z
m69 -17 c11 -29 6 -79 -13 -121 -32 -69 -127 -106 -165 -64 -16 18 -17 21 0
53 30 58 73 105 117 127 50 25 53 25 61 5z"/>
<path d="M2046 4923 c-6 -14 -5 -15 5 -6 7 7 10 15 7 18 -3 3 -9 -2 -12 -12z"/>
<path d="M1300 4895 c0 -14 29 -61 49 -79 29 -27 26 -5 -4 28 -14 15 -25 31
-25 36 0 5 -4 12 -10 15 -5 3 -10 3 -10 0z"/>
<path d="M1440 4856 c0 -8 5 -18 10 -21 6 -3 10 1 10 9 0 8 -4 18 -10 21 -5 3
-10 -1 -10 -9z"/>
<path d="M1467 4796 c-3 -8 1 -22 9 -33 14 -17 14 -17 5 4 -8 16 -8 22 1 25 8
3 9 6 1 11 -6 4 -13 1 -16 -7z"/>
<path d="M1306 4767 c3 -10 9 -15 12 -12 3 3 0 11 -7 18 -10 9 -11 8 -5 -6z"/>
<path d="M1490 4777 c0 -2 15 -16 33 -33 l32 -29 -29 33 c-28 30 -36 37 -36
29z"/>
<path d="M1182 4735 c12 -14 23 -25 25 -25 2 0 -4 11 -13 25 -9 14 -20 25 -25
25 -5 0 1 -11 13 -25z"/>
<path d="M2258 4716 c-32 -38 -45 -45 -100 -56 -35 -7 -57 -15 -50 -17 6 -3 9
-10 5 -16 -4 -7 0 -8 11 -4 10 4 25 7 34 8 11 1 8 4 -8 10 -21 7 -18 8 13 4
31 -3 44 1 73 27 28 25 73 89 62 88 -2 -1 -20 -20 -40 -44z"/>
<path d="M1342 4711 c13 -19 35 -41 49 -49 l24 -14 -23 19 c-13 10 -34 32 -49
48 l-25 30 24 -34z"/>
<path d="M1516 4709 c10 -17 86 -49 114 -48 17 1 19 3 7 6 -9 2 -15 9 -12 14
3 5 -1 6 -9 3 -9 -3 -34 3 -56 15 -46 24 -54 26 -44 10z"/>
<path d="M1198 4573 c7 -3 16 -2 19 1 4 3 -2 6 -13 5 -11 0 -14 -3 -6 -6z"/>
<path d="M1343 4513 c15 -2 37 -2 50 0 12 2 0 4 -28 4 -27 0 -38 -2 -22 -4z"/>
<path d="M1478 4503 c6 -2 18 -2 25 0 6 3 1 5 -13 5 -14 0 -19 -2 -12 -5z"/>
<path d="M2110 4490 c0 -5 5 -10 10 -10 6 0 10 5 10 10 0 6 -4 10 -10 10 -5 0
-10 -4 -10 -10z"/>
<path d="M1700 4476 c0 -9 5 -16 10 -16 6 0 10 4 10 9 0 6 -4 13 -10 16 -5 3
-10 -1 -10 -9z"/>
<path d="M1530 4470 c0 -5 5 -10 11 -10 5 0 7 5 4 10 -3 6 -8 10 -11 10 -2 0
-4 -4 -4 -10z"/>
<path d="M1870 4435 c13 -14 26 -25 28 -25 3 0 -5 11 -18 25 -13 14 -26 25
-28 25 -3 0 5 -11 18 -25z"/>
<path d="M2003 4439 c-6 -6 -21 -16 -34 -23 -12 -6 -24 -17 -27 -24 -5 -15 65
28 72 46 7 15 3 15 -11 1z"/>
<path d="M1548 4423 c7 -3 16 -2 19 1 4 3 -2 6 -13 5 -11 0 -14 -3 -6 -6z"/>
<path d="M1690 4420 c0 -5 5 -10 10 -10 6 0 10 5 10 10 0 6 -4 10 -10 10 -5 0
-10 -4 -10 -10z"/>
<path d="M2075 4420 c-3 -5 -1 -10 4 -10 6 0 11 5 11 10 0 6 -2 10 -4 10 -3 0
-8 -4 -11 -10z"/>
<path d="M1922 4407 c-6 -6 -14 -25 -17 -40 -8 -32 -16 -38 -70 -54 l-40 -11
35 -1 c19 0 42 3 50 9 10 6 24 3 46 -11 41 -25 54 -25 21 1 -14 11 -30 20 -35
20 -6 0 -8 9 -5 20 3 11 10 20 15 20 5 0 8 6 5 13 -2 6 0 20 5 30 10 20 5 23
-10 4z"/>
<path d="M2133 4413 c9 -2 25 -2 35 0 9 3 1 5 -18 5 -19 0 -27 -2 -17 -5z"/>
<path d="M1585 4380 c-11 -5 -14 -9 -7 -9 7 -1 10 -6 6 -12 -5 -8 -1 -8 14 0
44 24 33 41 -13 21z"/>
<path d="M2120 4350 c8 -5 20 -10 25 -10 6 0 3 5 -5 10 -8 5 -19 10 -25 10 -5
0 -3 -5 5 -10z"/>
<path d="M1768 4293 c7 -3 16 -2 19 1 4 3 -2 6 -13 5 -11 0 -14 -3 -6 -6z"/>
<path d="M1324 4168 l-19 -23 23 19 c21 18 27 26 19 26 -2 0 -12 -10 -23 -22z"/>
<path d="M1279 4133 c-13 -16 -12 -17 4 -4 9 7 17 15 17 17 0 8 -8 3 -21 -13z"/>
<path d="M1219 4083 l-24 -28 28 24 c25 23 32 31 24 31 -2 0 -14 -12 -28 -27z"/>
<path d="M1454 4074 c-18 -14 -18 -15 4 -4 12 6 22 13 22 15 0 8 -5 6 -26 -11z"/>
<path d="M1149 4023 l-24 -28 28 24 c25 23 32 31 24 31 -2 0 -14 -12 -28 -27z"/>
<path d="M1311 3955 c0 -11 4 -29 9 -40 l9 -20 0 20 c0 11 -4 29 -9 40 l-9 20
0 -20z"/>
<path d="M1250 3927 c0 -14 5 -29 10 -32 7 -4 8 3 4 22 -9 38 -14 42 -14 10z"/>
<path d="M1371 3892 c-1 -20 28 -72 41 -72 6 0 4 7 -5 18 -9 9 -20 29 -26 42
-5 14 -10 19 -10 12z"/>
<path d="M2350 3863 c-8 -3 -26 -10 -39 -15 -13 -5 -21 -11 -18 -14 7 -8 85
14 92 26 7 11 -11 12 -35 3z"/>
<path d="M592 3798 c-19 -19 -14 -56 8 -68 42 -22 85 33 51 64 -21 19 -43 20
-59 4z"/>
<path d="M585 3590 c-3 -5 -1 -10 4 -10 6 0 11 5 11 10 0 6 -2 10 -4 10 -3 0
-8 -4 -11 -10z"/>
<path d="M2078 3573 c7 -3 16 -2 19 1 4 3 -2 6 -13 5 -11 0 -14 -3 -6 -6z"/>
<path d="M1654 3528 l-19 -23 23 19 c21 18 27 26 19 26 -2 0 -12 -10 -23 -22z"/>
<path d="M2785 3500 c10 -11 20 -20 23 -20 3 0 -3 9 -13 20 -10 11 -20 20 -23
20 -3 0 3 -9 13 -20z"/>
<path d="M2726 3475 c8 -37 14 -45 14 -19 0 10 -5 26 -10 34 -8 11 -9 7 -4
-15z"/>
<path d="M2357 3469 c7 -9 9 -20 5 -25 -4 -5 -3 -6 2 -2 5 4 23 -3 40 -16 39
-29 64 -38 71 -26 4 6 -2 10 -13 10 -11 0 -41 17 -68 37 -27 20 -43 30 -37 22z"/>
<path d="M2592 3464 c10 -10 20 -16 22 -13 3 3 -5 11 -17 18 -21 13 -21 12 -5
-5z"/>
<path d="M2841 3464 c0 -11 3 -14 6 -6 3 7 2 16 -1 19 -3 4 -6 -2 -5 -13z"/>
<path d="M2952 3415 c0 -16 2 -22 5 -12 2 9 2 23 0 30 -3 6 -5 -1 -5 -18z"/>
<path d="M1386 3365 c-10 -14 -42 -42 -72 -61 -29 -19 -54 -39 -54 -44 0 -6 9
-1 20 10 11 11 24 20 30 20 13 0 79 59 91 81 14 28 4 23 -15 -6z"/>
<path d="M1486 3355 c-9 -26 -7 -32 5 -12 6 10 9 21 6 23 -2 3 -7 -2 -11 -11z"/>
<path d="M1497 3179 c-11 -6 -29 -9 -43 -6 -13 2 -21 0 -18 -4 8 -14 48 -10
70 6 22 17 17 19 -9 4z"/>
<path d="M490 2800 c0 -5 5 -10 10 -10 6 0 10 5 10 10 0 6 -4 10 -10 10 -5 0
-10 -4 -10 -10z"/>
<path d="M3013 2709 c-8 -7 -13 -35 -12 -63 1 -39 3 -45 8 -26 7 22 9 19 24
-29 10 -30 17 -63 17 -74 0 -11 5 -36 11 -57 21 -69 -34 -135 -60 -72 -8 19
-11 61 -8 118 3 54 2 77 -3 59 -11 -44 -12 -173 0 -180 6 -4 8 -11 5 -16 -4
-5 -1 -9 5 -9 6 0 9 -4 6 -9 -3 -5 3 -11 14 -14 11 -3 18 -1 14 4 -3 5 2 9 10
9 39 0 45 59 17 193 -10 50 -23 111 -28 135 -6 35 -10 41 -20 31z"/>
<path d="M902 2051 c-22 -14 -10 -56 16 -59 23 -3 52 13 52 29 0 12 -30 39
-43 39 -7 0 -18 -4 -25 -9z"/>
<path d="M2121 2044 c0 -11 3 -14 6 -6 3 7 2 16 -1 19 -3 4 -6 -2 -5 -13z"/>
<path d="M2095 2006 c-14 -15 -18 -46 -7 -46 9 0 27 49 20 55 -2 2 -7 -2 -13
-9z"/>
<path d="M2850 1995 c-10 -13 -9 -19 6 -36 21 -23 52 -22 67 3 23 36 -45 67
-73 33z"/>
<path d="M2060 1941 c0 -11 5 -23 10 -26 6 -3 10 3 10 14 0 11 -4 23 -10 26
-5 3 -10 -3 -10 -14z"/>
<path d="M2420 1862 c0 -10 3 -22 8 -26 4 -4 12 -22 19 -39 l11 -32 1 38 c1
20 -3 37 -9 37 -5 0 -10 9 -10 20 0 11 -4 20 -10 20 -5 0 -10 -8 -10 -18z"/>
<path d="M1970 1786 c0 -9 7 -16 16 -16 17 0 14 22 -4 28 -7 2 -12 -3 -12 -12z"/>
<path d="M2835 1790 c3 -5 8 -10 11 -10 2 0 4 5 4 10 0 6 -5 10 -11 10 -5 0
-7 -4 -4 -10z"/>
<path d="M2399 1780 c-1 -8 -3 -19 -3 -25 -1 -5 -5 -16 -10 -23 -12 -20 -3
-21 14 -2 11 10 13 24 9 40 -4 14 -8 18 -10 10z"/>
<path d="M2366 1754 c-4 -9 -4 -19 -1 -22 2 -3 7 3 11 12 4 9 4 19 1 22 -2 3
-7 -3 -11 -12z"/>
<path d="M1478 1589 c-19 -11 -24 -29 -8 -29 5 0 14 9 20 20 12 23 12 23 -12
9z"/>
<path d="M2068 1512 c-27 -29 -37 -47 -36 -70 1 -32 11 -41 23 -22 11 18 25
11 25 -13 0 -28 18 -47 36 -40 11 4 12 9 3 19 -9 11 -9 17 0 28 15 18 19 95 5
104 -6 4 -13 13 -15 20 -3 8 -18 -2 -41 -26z"/>
<path d="M1492 1470 c0 -14 2 -19 5 -12 2 6 2 18 0 25 -3 6 -5 1 -5 -13z"/>
<path d="M1999 1448 c-6 -21 -5 -38 2 -38 5 0 9 9 9 20 0 16 -7 28 -11 18z"/>
<path d="M1500 1429 c0 -5 5 -7 10 -4 6 3 10 8 10 11 0 2 -4 4 -10 4 -5 0 -10
-5 -10 -11z"/>
<path d="M2395 1410 c-3 -5 -1 -10 4 -10 6 0 11 5 11 10 0 6 -2 10 -4 10 -3 0
-8 -4 -11 -10z"/>
<path d="M2365 1380 c-3 -5 -1 -10 4 -10 6 0 11 5 11 10 0 6 -2 10 -4 10 -3 0
-8 -4 -11 -10z"/>
<path d="M1286 1363 c-13 -46 -26 -142 -26 -195 0 -45 5 -63 20 -78 58 -58 84
4 60 139 -5 31 -12 77 -16 104 -5 48 -27 65 -38 30z m45 -245 c-9 -44 -29 -46
-46 -4 -19 45 -19 61 2 149 l16 72 17 -93 c10 -51 14 -107 11 -124z"/>
<path d="M1540 1340 c0 -5 5 -10 11 -10 6 0 9 -7 5 -15 -3 -8 -1 -15 4 -15 11
0 13 11 4 34 -7 18 -24 22 -24 6z"/>
<path d="M2206 1214 c-20 -21 -34 -40 -30 -43 3 -3 10 2 15 12 6 9 14 17 19
17 16 0 50 39 40 45 -5 3 -25 -11 -44 -31z"/>
<path d="M2250 1202 c0 -11 5 -24 10 -27 6 -4 9 2 7 14 -4 29 -17 39 -17 13z"/>
<path d="M1720 980 c0 -5 5 -10 11 -10 5 0 7 5 4 10 -3 6 -8 10 -11 10 -2 0
-4 -4 -4 -10z"/>
<path d="M1747 915 c9 -19 21 -35 25 -35 5 0 6 -4 3 -10 -3 -5 -1 -10 5 -10
13 0 4 34 -18 68 -23 35 -34 26 -15 -13z"/>
<path d="M1806 801 c-5 -7 0 -21 10 -32 9 -10 13 -19 9 -19 -4 0 -1 -8 8 -18
10 -10 15 -21 13 -23 -2 -2 3 -10 11 -18 13 -12 14 -11 8 10 -4 13 -12 26 -16
27 -5 2 -9 14 -9 26 0 30 -24 63 -34 47z"/>
</g>
</svg>
